<?xml version="1.0" encoding="UTF-8" standalone="no"?>
<svg
   width="26.66667"
   height="16"
   version="1.1"
   viewBox="-2100 -1470 105.66039 63.396227"
   id="svg29"
   sodipodi:docname="brasil.svg"
   inkscape:version="1.3.2 (1:1.3.2+202311252150+091e20ef0f)"
   xmlns:inkscape="http://www.inkscape.org/namespaces/inkscape"
   xmlns:sodipodi="http://sodipodi.sourceforge.net/DTD/sodipodi-0.dtd"
   xmlns:xlink="http://www.w3.org/1999/xlink"
   xmlns="http://www.w3.org/2000/svg"
   xmlns:svg="http://www.w3.org/2000/svg">
  <sodipodi:namedview
     id="namedview29"
     pagecolor="#ffffff"
     bordercolor="#cccccc"
     borderopacity="1"
     inkscape:showpageshadow="0"
     inkscape:pageopacity="1"
     inkscape:pagecheckerboard="0"
     inkscape:deskcolor="#d1d1d1"
     inkscape:zoom="16.090566"
     inkscape:cx="20.57106"
     inkscape:cy="8.7318246"
     inkscape:window-width="1920"
     inkscape:window-height="999"
     inkscape:window-x="3840"
     inkscape:window-y="0"
     inkscape:window-maximized="1"
     inkscape:current-layer="g30"
     showgrid="false"
     showguides="false" />
  <defs
     id="defs13">
    <g
       id="G">
      <clipPath
         id="gcut">
        <path
           d="m -31.5,0 v -70 h 63 V 0 Z M 0,-47 v 12 h 31.5 v -12 z"
           id="path1" />
      </clipPath>
      <use
         width="100%"
         height="100%"
         clip-path="url(#gcut)"
         xlink:href="#O"
         id="use1" />
      <path
         d="m 5,-35 h 26.5 v 10 H 5 Z"
         id="path2" />
      <path
         d="m 21.5,-35 h 10 V 0 h -10 z"
         id="path3" />
    </g>
    <g
       id="R">
      <use
         width="100%"
         height="100%"
         xlink:href="#P"
         id="use3" />
      <path
         d="m 28,0 c 0,-10 0,-32 -15,-32 H -6 c 22,0 22,22 22,32"
         id="path4" />
    </g>
    <g
       id="star"
       fill="#ffffff">
      <g
         id="c">
        <path
           id="t"
           transform="rotate(18,0,-1)"
           d="M 0,-1 V 0 H 0.5" />
        <use
           transform="scale(-1,1)"
           width="100%"
           height="100%"
           xlink:href="#t"
           id="use4" />
      </g>
      <use
         transform="rotate(72)"
         width="100%"
         height="100%"
         xlink:href="#c"
         id="use5" />
      <use
         transform="rotate(-72)"
         width="100%"
         height="100%"
         xlink:href="#c"
         id="use6" />
      <use
         transform="rotate(144)"
         width="100%"
         height="100%"
         xlink:href="#c"
         id="use7" />
      <use
         transform="rotate(-144)"
         width="100%"
         height="100%"
         xlink:href="#c"
         id="use8" />
    </g>
    <g
       id="star1">
      <use
         transform="scale(31.5)"
         width="100%"
         height="100%"
         xlink:href="#star"
         id="use9" />
    </g>
    <g
       id="star2">
      <use
         transform="scale(26.25)"
         width="100%"
         height="100%"
         xlink:href="#star"
         id="use10" />
    </g>
    <g
       id="star3">
      <use
         transform="scale(21)"
         width="100%"
         height="100%"
         xlink:href="#star"
         id="use11" />
    </g>
    <g
       id="star4">
      <use
         transform="scale(15)"
         width="100%"
         height="100%"
         xlink:href="#star"
         id="use12" />
    </g>
    <g
       id="star5">
      <use
         transform="scale(10.5)"
         width="100%"
         height="100%"
         xlink:href="#star"
         id="use13" />
    </g>
    <path
       id="D"
       d="m -31.5,0 h 33 a 30,30 0 0 0 30,-30 v -10 a 30,30 0 0 0 -30,-30 h -33 z m 13,-13 h 19 a 19,19 0 0 0 19,-19 v -6 a 19,19 0 0 0 -19,-19 h -19 z"
       fill-rule="evenodd" />
    <path
       id="E"
       transform="translate(-31.5)"
       d="M 0,0 H 63 V -13 H 12 V -31 H 52 V -43 H 12 V -57 H 60 V -70 H 0 Z" />
    <path
       id="e"
       d="m -26.25,0 h 52.5 v -12 h -40.5 v -16 h 33 v -12 h -33 V -51 H 25 v -12 h -51.25 z" />
    <path
       id="M"
       d="m -31.5,0 h 12 v -48 l 14,48 h 11 l 14,-48 V 0 h 12 V -70 H 14 L 0,-22 -14,-70 h -17.5 z" />
    <path
       id="O"
       d="M 0,0 A 31.5,35 0 0 0 0,-70 31.5,35 0 0 0 0,0 m 0,-13 a 18.5,22 0 0 0 0,-44 18.5,22 0 0 0 0,44"
       fill-rule="evenodd" />
    <path
       id="P"
       d="m -31.5,0 h 13 v -26 h 28 a 22,22 0 0 0 0,-44 h -40 z m 13,-39 h 27 a 9,9 0 0 0 0,-18 h -27 z"
       fill-rule="evenodd" />
    <path
       id="S"
       d="m -15.75,-22 c 0,7 6.75,10.5 16.75,10.5 10,0 14.74,-3.25 14.75,-7.75 C 15.75,-33.5 -31,-24.5 -30.75,-49.5 -30.5,-71 -6,-70 3,-70 c 9,0 26,4 25.75,21.25 H 13.5 c 0,-7.5 -7,-10.25 -15,-10.25 -7.75,0 -13.25,1.25 -13.25,8.5 -0.25,11.75 46.25,4 46.25,28.75 C 31.5,-3.5 13.5,0 0,0 -11.5,0 -31.55,-4.5 -31.5,-22 Z" />
  </defs>
  <clipPath
     id="band">
    <circle
       r="735"
       id="circle13"
       cx="0"
       cy="0" />
  </clipPath>
  <g
     id="g30"
     transform="matrix(0.03234501,0,0,0.03234501,-2032.0755,-1422.4528)">
    <g
       id="g1"
       transform="matrix(0.66666673,0,0,0.66666673,-699.99987,-489.99991)">
      <path
         d="M -2100,-1470 H 2800.0004 V 1470 H -2100 Z"
         fill="#009b3a"
         id="path13"
         style="stroke-width:1.08012" />
      <path
         d="m -1392.9998,0 1743,1113 1743,-1113 -1743,-1113 z"
         fill="#fedf00"
         id="path14" />
      <circle
         r="735"
         fill="#002776"
         id="circle14"
         cx="350.00021"
         cy="0" />
      <path
         d="m -2205,1470 a 1785,1785 0 0 1 3570,0 h -105 a 1680,1680 0 1 0 -3360,0 z"
         clip-path="url(#band)"
         fill="#ffffff"
         id="path15"
         transform="translate(350.0002)" />
      <g
         transform="translate(-84.35665,1470)"
         fill="#009b3a"
         id="g29">
        <use
           transform="rotate(-7)"
           y="-1697.5"
           width="100%"
           height="100%"
           xlink:href="#O"
           id="use15" />
        <use
           transform="rotate(-4)"
           y="-1697.5"
           width="100%"
           height="100%"
           xlink:href="#R"
           id="use16" />
        <use
           transform="rotate(-1)"
           y="-1697.5"
           width="100%"
           height="100%"
           xlink:href="#D"
           id="use17" />
        <use
           transform="rotate(2)"
           y="-1697.5"
           width="100%"
           height="100%"
           xlink:href="#E"
           id="use18" />
        <use
           transform="rotate(5)"
           y="-1697.5"
           width="100%"
           height="100%"
           xlink:href="#M"
           id="use19" />
        <use
           transform="rotate(9.75)"
           y="-1697.5"
           width="100%"
           height="100%"
           xlink:href="#e"
           id="use20" />
        <use
           transform="rotate(14.5)"
           y="-1697.5"
           width="100%"
           height="100%"
           xlink:href="#P"
           id="use21" />
        <use
           transform="rotate(17.5)"
           y="-1697.5"
           width="100%"
           height="100%"
           xlink:href="#R"
           id="use22" />
        <use
           transform="rotate(20.5)"
           y="-1697.5"
           width="100%"
           height="100%"
           xlink:href="#O"
           id="use23" />
        <use
           transform="rotate(23.5)"
           y="-1697.5"
           width="100%"
           height="100%"
           xlink:href="#G"
           id="use24" />
        <use
           transform="rotate(26.5)"
           y="-1697.5"
           width="100%"
           height="100%"
           xlink:href="#R"
           id="use25" />
        <use
           transform="rotate(29.5)"
           y="-1697.5"
           width="100%"
           height="100%"
           xlink:href="#E"
           id="use26" />
        <use
           transform="rotate(32.5)"
           y="-1697.5"
           width="100%"
           height="100%"
           xlink:href="#S"
           id="use27" />
        <use
           transform="rotate(35.5)"
           y="-1697.5"
           width="100%"
           height="100%"
           xlink:href="#S"
           id="use28" />
        <use
           transform="rotate(38.5)"
           y="-1697.5"
           width="100%"
           height="100%"
           xlink:href="#O"
           id="use29" />
      </g>
    </g>
  </g>
</svg>
