<?xml version="1.0" encoding="UTF-8" standalone="no"?>
<!-- Created with Inkscape (http://www.inkscape.org/) -->

<svg
   width="184.6454mm"
   height="184.6454mm"
   viewBox="0 0 184.6454 184.6454"
   version="1.1"
   id="svg1"
   inkscape:version="1.3.2 (091e20e, 2023-11-25, custom)"
   sodipodi:docname="logo.svg"
   xml:space="preserve"
   xmlns:inkscape="http://www.inkscape.org/namespaces/inkscape"
   xmlns:sodipodi="http://sodipodi.sourceforge.net/DTD/sodipodi-0.dtd"
   xmlns="http://www.w3.org/2000/svg"
   xmlns:svg="http://www.w3.org/2000/svg"><sodipodi:namedview
     id="namedview1"
     pagecolor="#505050"
     bordercolor="#ffffff"
     borderopacity="1"
     inkscape:showpageshadow="0"
     inkscape:pageopacity="0"
     inkscape:pagecheckerboard="1"
     inkscape:deskcolor="#505050"
     inkscape:document-units="mm"
     inkscape:zoom="0.1280329"
     inkscape:cx="-413.95609"
     inkscape:cy="230.40952"
     inkscape:window-width="1920"
     inkscape:window-height="1009"
     inkscape:window-x="2552"
     inkscape:window-y="-8"
     inkscape:window-maximized="1"
     inkscape:current-layer="layer1"
     showguides="false" /><defs
     id="defs1" /><g
     inkscape:label="Camada 1"
     inkscape:groupmode="layer"
     id="layer1"
     transform="translate(-83.8729,-29.633335)"><rect
       style="fill:#1a1a1a;fill-opacity:1;stroke:none;stroke-width:4;stroke-linecap:round;stroke-linejoin:round"
       id="rect13"
       width="551.6236"
       height="380.65683"
       x="368.01672"
       y="-1031.7881"
       rx="0.50908881"
       ry="0.44934258" /><path
       style="fill:#dedede;fill-opacity:0;stroke:none;stroke-width:4;stroke-linecap:round;stroke-linejoin:round;stroke-dasharray:none;stroke-opacity:1"
       d="m 92.2887,160.45729 26.9397,-1.92924 -8.7945,-27.69802 1.0937,-24.7461 12.9883,-26.38672 24.8828,-18.59375 31.7188,-5.33204 21.061,1.15207 9.8374,9.23857 17.9102,15.3271 8.3398,17.75884 4.2383,24.74609 -4.1016,20.09766 -5.3718,10.87525 4.5719,8.69256 14.1593,-4.99917 h 7.0117 l 6.2891,-24.70435 -1.9141,-33.20414 -10.6641,-25.42968 -30.4882,-30.078135 -45.8008,-15.61075 -42.1094,14.38028 -35.1703,31.855475 -14.0441,32.48886 4.3707,34.77676 z"
       id="path37"
       sodipodi:nodetypes="ccccccccccccccccccccccccccc" /><path
       style="fill:#4985ea;fill-opacity:1;stroke:none;stroke-width:4;stroke-linecap:round;stroke-linejoin:round;stroke-dasharray:none;stroke-opacity:1"
       d="m 89.2425,143.13471 c 44.5896,-29.1875 35.8206,-0.39546 60.7727,0.37793 24.9521,0.7734 32.096,-26.68223 50.2709,-19.33495 18.1748,7.34728 48.2447,22.9926 61.6321,22.13052 l -31.8476,50.58097 -53.875,17.38956 -47.9648,-13.46296 -22.9,-19.74686 z"
       id="path44"
       sodipodi:nodetypes="csscccccc" /><path
       style="fill:none;fill-opacity:1;stroke:#2553ae;stroke-width:4;stroke-linecap:round;stroke-linejoin:round;stroke-dasharray:none;stroke-opacity:1"
       d="m 89.2425,143.13471 c 44.5896,-29.1875 35.8206,-0.39546 60.7727,0.37793 24.9521,0.7734 32.096,-26.68223 50.2709,-19.33495 18.1748,7.34728 48.2447,22.9926 61.6321,22.13052"
       id="path45"
       sodipodi:nodetypes="cssc" /><path
       d="m 176.1956,29.633335 c -50.9072,0 -92.3227,41.415975 -92.3227,92.322705 0,50.90674 41.4155,92.3227 92.3227,92.3227 50.9072,0 92.3227,-41.41596 92.3227,-92.3227 0,-50.90673 -41.4155,-92.322705 -92.3227,-92.322705 z m 0,177.890085 c -47.1819,0 -85.5674,-38.38508 -85.5674,-85.56738 0,-47.1823 38.3855,-85.567385 85.5674,-85.567385 47.1818,0 85.5674,38.385085 85.5674,85.567385 0,47.1823 -38.3856,85.56738 -85.5674,85.56738 z"
       id="path38"
       style="fill:#ffffff;fill-opacity:1;stroke-width:0.450355" /><path
       d="m 119.7945,150.61976 c -3.9964,-7.84202 -6.3067,-16.46992 -6.7787,-25.28561 h 7.7862 c 1.8654,0 3.3776,-1.51184 3.3776,-3.37766 0,-1.86582 -1.5122,-3.37766 -3.3776,-3.37766 h -7.7907 c 0.4787,-9.06068 2.8728,-17.62147 6.7832,-25.28561 l 6.74,3.89152 c 0.5319,0.30714 1.1129,0.45305 1.6857,0.45305 1.1673,0 2.3027,-0.60572 2.9282,-1.68928 0.9327,-1.61542 0.3792,-3.68119 -1.2362,-4.61388 l -6.7283,-3.88431 c 4.817,-7.37545 11.1296,-13.68808 18.5051,-18.50507 l 3.8843,6.72785 c 0.6255,1.08355 1.7609,1.68928 2.9282,1.68928 0.5728,0 1.1538,-0.14592 1.6857,-0.45306 1.6154,-0.93268 2.1689,-2.99846 1.2362,-4.61388 l -3.8915,-6.74001 c 7.6637,-3.91043 16.2249,-6.30451 25.2851,-6.78324 v 7.79023 c 0,1.86582 1.5123,3.37766 3.3777,3.37766 1.8654,0 3.3777,-1.51184 3.3777,-3.37766 v -7.79068 c 9.0606,0.47873 17.6214,2.87281 25.2851,6.78324 l -3.8915,6.74001 c -0.9327,1.61542 -0.3792,3.6812 1.2362,4.61388 0.5319,0.30714 1.1129,0.45306 1.6857,0.45306 1.1673,0 2.3027,-0.60573 2.9282,-1.68928 l 3.8843,-6.72785 c 7.3755,4.81744 13.6881,11.12961 18.5051,18.50507 l -6.7283,3.88431 c -1.6154,0.93269 -2.1689,2.99846 -1.2362,4.61388 0.6255,1.08356 1.7609,1.68928 2.9282,1.68928 0.5728,0 1.1538,-0.14591 1.6857,-0.45305 l 6.74,-3.89152 c 3.9104,7.66369 6.304,16.22493 6.7832,25.28561 h -7.7889 c -1.8654,0 -3.3776,1.51184 -3.3776,3.37766 0,1.86582 1.5122,3.37766 3.3776,3.37766 h 7.7866 c -0.4719,8.80939 -2.7795,17.43908 -6.7706,25.29012 l 4.2379,6.34864 c 6.1383,-10.61936 9.3831,-22.72804 9.3831,-35.01642 -5e-4,-12.63785 -3.3664,-24.50379 -9.2471,-34.75026 -0.041,-0.0892 -0.086,-0.17789 -0.1356,-0.26481 -0.061,-0.10583 -0.1274,-0.20626 -0.1977,-0.30309 -6.0838,-10.37301 -14.759,-19.0482 -25.132,-25.13204 -0.096,-0.0703 -0.1973,-0.13691 -0.3031,-0.1977 -0.087,-0.05 -0.1752,-0.0937 -0.2644,-0.13556 -10.2469,-5.88073 -22.1129,-9.24668 -34.7507,-9.24668 -12.6383,0 -24.5047,3.36595 -34.7516,9.24758 -0.089,0.0414 -0.177,0.0851 -0.2635,0.13466 -0.1058,0.0613 -0.2062,0.12745 -0.3031,0.1977 -10.373,6.08384 -19.0482,14.75903 -25.132,25.13204 -0.07,0.0964 -0.1369,0.19726 -0.1977,0.30309 -0.05,0.0869 -0.094,0.17564 -0.1356,0.26481 -5.8807,10.24647 -9.2466,22.11241 -9.2466,34.75026 0,12.30009 3.2493,24.40697 9.4002,35.02048"
       id="path39"
       style="fill:#ffffff;fill-opacity:1;stroke-width:0.450355"
       sodipodi:nodetypes="ccssscccscccccscsccsssccscscccccscccsssccccccccscsccccccsc" /><g
       id="g43"
       style="fill:#ffffff;fill-opacity:1"
       transform="translate(-282.0856,-32.275445)"><path
         id="path42"
         style="fill:#ffffff;fill-opacity:1;stroke-width:12.4127;stroke-linejoin:round"
         d="m 470.28125,154.23149 a 11.999998,11.999998 0 0 1 -12,11.99999 11.999998,11.999998 0 0 1 -12,-11.99999 11.999998,11.999998 0 0 1 12,-12 11.999998,11.999998 0 0 1 12,12 z" /><path
         id="path43"
         style="fill:#ffffff;fill-opacity:1;stroke-width:7.19264;stroke-linejoin:round"
         inkscape:transform-center-x="-3.1241493"
         inkscape:transform-center-y="2.0775959"
         d="m 467.19396,154.57939 -8.62258,1.5609 -8.6226,1.56089 c 0,0 -0.11985,-19.20978 -0.7587,-28.78776 -0.57709,-8.65239 -0.70739,-13.80165 -2.25374,-25.96074 -0.14719,-1.15732 0.3707,-2.49602 1.50753,-2.75811 1.26551,-0.291719 2.66337,0.68328 2.89944,1.96034 2.04841,11.08045 4.06421,16.87763 6.46939,25.19765 2.66581,9.22166 9.38126,27.22683 9.38126,27.22683 z"
         sodipodi:nodetypes="cccsssssc" /></g><path
       style="fill:#4985ea;fill-opacity:1;stroke:none;stroke-width:4.92525;stroke-linecap:round;stroke-linejoin:round"
       d="m 532.8258,-819.8594 c 18.60843,-11.56352 31.60751,23.15317 60.21501,26.34484 22.0965,2.46526 38.04269,-29.41047 73.75969,-25.0094 16.7704,2.06646 30.16903,24.45565 48.28691,25.00895 15.23406,0.46523 29.08498,-26.90219 41.80859,-18.51156 32.47932,21.41861 32.83305,96.08426 -1.4021,92.42731 H 528.176 c -31.61715,-3.37729 -23.76652,-82.60188 4.6498,-100.26014 z"
       id="path4"
       sodipodi:nodetypes="assaassa" /><path
       d="m 176.1956,29.633335 c -50.9072,0 -92.3227,41.415975 -92.3227,92.322705 0,50.90674 41.4155,92.3227 92.3227,92.3227 50.9072,0 92.3227,-41.41596 92.3227,-92.3227 0,-50.90673 -41.4155,-92.322705 -92.3227,-92.322705 z m 0,177.890085 c -47.1819,0 -85.5674,-38.38508 -85.5674,-85.56738 0,-47.1823 38.3855,-85.567385 85.5674,-85.567385 47.1818,0 85.5674,38.385085 85.5674,85.567385 0,47.1823 -38.3856,85.56738 -85.5674,85.56738 z"
       id="path5"
       style="fill:#ffffff;fill-opacity:1;stroke-width:0.450355" /><g
       id="g13"
       transform="translate(491.8332,-665.42139)"><path
         style="fill:#dedede;fill-opacity:0;stroke:none;stroke-width:4;stroke-linecap:round;stroke-linejoin:round;stroke-dasharray:none;stroke-opacity:1"
         d="m 69.316708,-89.592366 26.9397,-1.92924 -8.7945,-27.698024 1.0937,-24.7461 12.988302,-26.38672 24.8828,-18.59375 31.7188,-5.33204 21.061,1.15207 9.8374,9.23857 17.9102,15.3271 8.3398,17.75884 4.2383,24.74609 -4.1016,20.09766 -5.3718,10.875254 4.5719,8.69256 14.1593,-4.99917 h 7.0117 l 6.2891,-24.704354 -1.9141,-33.20414 -10.6641,-25.42968 -30.4882,-30.07813 -45.8008,-15.61075 -42.1094,14.38028 -35.170302,31.85547 -14.0441,32.48886 4.3707,34.77676 z"
         id="path6"
         sodipodi:nodetypes="ccccccccccccccccccccccccccc" /><path
         d="m 153.22361,-220.41632 c -50.9072,0 -92.322702,41.41597 -92.322702,92.3227 0,50.906744 41.415502,92.322704 92.322702,92.322704 50.9072,0 92.3227,-41.41596 92.3227,-92.322704 0,-50.90673 -41.4155,-92.3227 -92.3227,-92.3227 z m 0,177.890084 c -47.1819,0 -85.567402,-38.38508 -85.567402,-85.567384 0,-47.1823 38.385502,-85.56738 85.567402,-85.56738 47.1818,0 85.5674,38.38508 85.5674,85.56738 0,47.182304 -38.3856,85.567384 -85.5674,85.567384 z"
         id="path9"
         style="fill:#ffffff;fill-opacity:1;stroke-width:0.450355" /><path
         d="m 96.822508,-99.429896 c -3.9964,-7.842024 -6.3067,-16.469924 -6.7787,-25.285614 h 7.7862 c 1.8654,0 3.377602,-1.51184 3.377602,-3.37766 0,-1.86582 -1.512202,-3.37766 -3.377602,-3.37766 h -7.7907 c 0.4787,-9.06068 2.8728,-17.62147 6.7832,-25.28561 l 6.740002,3.89152 c 0.5319,0.30714 1.1129,0.45305 1.6857,0.45305 1.1673,0 2.3027,-0.60572 2.9282,-1.68928 0.9327,-1.61542 0.3792,-3.68119 -1.2362,-4.61388 l -6.7283,-3.88431 c 4.817,-7.37545 11.1296,-13.68808 18.5051,-18.50507 l 3.8843,6.72785 c 0.6255,1.08355 1.7609,1.68928 2.9282,1.68928 0.5728,0 1.1538,-0.14592 1.6857,-0.45306 1.6154,-0.93268 2.1689,-2.99846 1.2362,-4.61388 l -3.8915,-6.74001 c 7.6637,-3.91043 16.2249,-6.30451 25.2851,-6.78324 v 7.79023 c 0,1.86582 1.5123,3.37766 3.3777,3.37766 1.8654,0 3.3777,-1.51184 3.3777,-3.37766 v -7.79068 c 9.0606,0.47873 17.6214,2.87281 25.2851,6.78324 l -3.8915,6.74001 c -0.9327,1.61542 -0.3792,3.6812 1.2362,4.61388 0.5319,0.30714 1.1129,0.45306 1.6857,0.45306 1.1673,0 2.3027,-0.60573 2.9282,-1.68928 l 3.8843,-6.72785 c 7.3755,4.81744 13.6881,11.12961 18.5051,18.50507 l -6.7283,3.88431 c -1.6154,0.93269 -2.1689,2.99846 -1.2362,4.61388 0.6255,1.08356 1.7609,1.68928 2.9282,1.68928 0.5728,0 1.1538,-0.14591 1.6857,-0.45305 l 6.74,-3.89152 c 3.9104,7.66369 6.304,16.22493 6.7832,25.28561 h -7.7889 c -1.8654,0 -3.3776,1.51184 -3.3776,3.37766 0,1.86582 1.5122,3.37766 3.3776,3.37766 h 7.7866 c -0.4719,8.80939 -2.7795,17.43908 -6.7706,25.290124 l 4.2379,6.34864 c 6.1383,-10.619364 9.3831,-22.728044 9.3831,-35.016424 -5e-4,-12.63785 -3.3664,-24.50379 -9.2471,-34.75026 -0.041,-0.0892 -0.086,-0.17789 -0.1356,-0.26481 -0.061,-0.10583 -0.1274,-0.20626 -0.1977,-0.30309 -6.0838,-10.37301 -14.759,-19.0482 -25.132,-25.13204 -0.096,-0.0703 -0.1973,-0.13691 -0.3031,-0.1977 -0.087,-0.05 -0.1752,-0.0937 -0.2644,-0.13556 -10.2469,-5.88073 -22.1129,-9.24668 -34.7507,-9.24668 -12.6383,0 -24.5047,3.36595 -34.7516,9.24758 -0.089,0.0414 -0.177,0.0851 -0.2635,0.13466 -0.1058,0.0613 -0.2062,0.12745 -0.3031,0.1977 -10.373,6.08384 -19.048202,14.75903 -25.132002,25.13204 -0.07,0.0964 -0.1369,0.19726 -0.1977,0.30309 -0.05,0.0869 -0.094,0.17564 -0.1356,0.26481 -5.8807,10.24647 -9.2466,22.11241 -9.2466,34.75026 0,12.30009 3.2493,24.40697 9.4002,35.020484"
         id="path10"
         style="fill:#ffffff;fill-opacity:1;stroke-width:0.450355"
         sodipodi:nodetypes="ccssscccscccccscsccsssccscscccccscccsssccccccccscsccccccsc" /><g
         id="g12"
         style="fill:#ffffff;fill-opacity:1"
         transform="translate(-305.05759,-282.3251)"><path
           id="path11"
           style="fill:#ffffff;fill-opacity:1;stroke-width:12.4127;stroke-linejoin:round"
           d="m 470.28125,154.23149 a 11.999998,11.999998 0 0 1 -12,11.99999 11.999998,11.999998 0 0 1 -12,-11.99999 11.999998,11.999998 0 0 1 12,-12 11.999998,11.999998 0 0 1 12,12 z" /><path
           id="path12"
           style="fill:#ffffff;fill-opacity:1;stroke-width:7.19264;stroke-linejoin:round"
           inkscape:transform-center-x="-3.1241493"
           inkscape:transform-center-y="2.0775959"
           d="m 467.19396,154.57939 -8.62258,1.5609 -8.6226,1.56089 c 0,0 -0.11985,-19.20978 -0.7587,-28.78776 -0.57709,-8.65239 -0.70739,-13.80165 -2.25374,-25.96074 -0.14719,-1.15732 0.3707,-2.49602 1.50753,-2.75811 1.26551,-0.291719 2.66337,0.68328 2.89944,1.96034 2.04841,11.08045 4.06421,16.87763 6.46939,25.19765 2.66581,9.22166 9.38126,27.22683 9.38126,27.22683 z"
           sodipodi:nodetypes="cccsssssc" /></g><path
         d="m 153.22361,-220.41632 c -50.9072,0 -92.322702,41.41597 -92.322702,92.3227 0,50.906744 41.415502,92.322704 92.322702,92.322704 50.9072,0 92.3227,-41.41596 92.3227,-92.322704 0,-50.90673 -41.4155,-92.3227 -92.3227,-92.3227 z m 0,177.890084 c -47.1819,0 -85.567402,-38.38508 -85.567402,-85.567384 0,-47.1823 38.385502,-85.56738 85.567402,-85.56738 47.1818,0 85.5674,38.38508 85.5674,85.56738 0,47.182304 -38.3856,85.567384 -85.5674,85.567384 z"
         id="path13"
         style="fill:#ffffff;fill-opacity:1;stroke-width:0.450355" /></g><g
       style="fill:#ffffff;fill-opacity:1"
       id="g3"
       transform="matrix(0.41341146,0,0,0.41341146,404.53719,-928.28578)"><g
         id="g2"
         style="fill:#ffffff;fill-opacity:1">
	<g
   id="g1"
   style="fill:#ffffff;fill-opacity:1">
		<path
   d="m 300.233,0 h -88.467 c -14.329,0 -25.987,11.658 -25.987,25.987 v 460.026 c 0,14.329 11.658,25.987 25.987,25.987 h 88.467 c 14.329,0 25.987,-11.658 25.987,-25.987 V 25.987 C 326.22,11.658 314.563,0 300.233,0 Z m 9.4,35.387 h -35.94 c -4.58,0 -8.294,3.712 -8.294,8.294 0,4.581 3.713,8.294 8.294,8.294 h 35.94 v 18.799 h -18.246 c -4.58,0 -8.294,3.712 -8.294,8.294 0,4.582 3.713,8.294 8.294,8.294 h 18.246 v 18.799 h -35.94 c -4.58,0 -8.294,3.712 -8.294,8.294 0,4.581 3.713,8.294 8.294,8.294 h 35.94 v 18.799 h -18.246 c -4.58,0 -8.294,3.712 -8.294,8.294 0,4.581 3.713,8.294 8.294,8.294 h 18.246 v 18.799 h -35.94 c -4.58,0 -8.294,3.712 -8.294,8.294 0,4.581 3.713,8.294 8.294,8.294 h 35.94 v 18.799 h -18.246 c -4.58,0 -8.294,3.712 -8.294,8.294 0,4.581 3.713,8.294 8.294,8.294 h 18.246 v 18.799 h -35.94 c -4.58,0 -8.294,3.712 -8.294,8.294 0,4.582 3.713,8.294 8.294,8.294 h 35.94 v 18.799 h -18.246 c -4.58,0 -8.294,3.712 -8.294,8.294 0,4.582 3.713,8.294 8.294,8.294 h 18.246 v 18.799 h -35.94 c -4.58,0 -8.294,3.712 -8.294,8.294 0,4.581 3.713,8.294 8.294,8.294 h 35.94 v 18.799 h -18.246 c -4.58,0 -8.294,3.712 -8.294,8.294 0,4.581 3.713,8.294 8.294,8.294 h 18.246 v 18.799 h -35.94 c -4.58,0 -8.294,3.712 -8.294,8.294 0,4.581 3.713,8.294 8.294,8.294 h 35.94 v 18.799 h -18.246 c -4.58,0 -8.294,3.712 -8.294,8.294 0,4.582 3.713,8.294 8.294,8.294 h 18.246 v 18.799 h -35.94 c -4.58,0 -8.294,3.712 -8.294,8.294 0,4.582 3.713,8.294 8.294,8.294 h 35.94 v 9.4 c 0,5.183 -4.216,9.4 -9.4,9.4 h -88.467 c -5.183,0 -9.4,-4.217 -9.4,-9.4 V 25.987 c 0,-5.183 4.216,-9.4 9.4,-9.4 h 88.467 c 5.183,0 9.4,4.217 9.4,9.4 z"
   id="path1"
   style="fill:#ffffff;fill-opacity:1" />
	</g>
</g></g></g></svg>
