<svg width="464" height="32" viewBox="0 0 464 32" fill="none" xmlns="http://www.w3.org/2000/svg">
<path d="M6.816 25.288C5.44 25.288 4.288 25.032 3.36 24.52C2.448 23.992 1.664 23.296 1.008 22.432L2.088 21.544C2.68 22.328 3.344 22.936 4.08 23.368C4.832 23.8 5.76 24.016 6.864 24.016C8.16 24.016 9.152 23.712 9.84 23.104C10.544 22.48 10.896 21.616 10.896 20.512C10.896 19.488 10.6 18.736 10.008 18.256C9.416 17.776 8.584 17.424 7.512 17.2L6.024 16.888C4.424 16.568 3.264 16.032 2.544 15.28C1.824 14.528 1.464 13.568 1.464 12.4C1.464 11.664 1.592 11.024 1.848 10.48C2.104 9.92 2.464 9.456 2.928 9.088C3.408 8.72 3.976 8.44 4.632 8.248C5.304 8.056 6.04 7.96 6.84 7.96C8.088 7.96 9.144 8.184 10.008 8.632C10.872 9.08 11.584 9.712 12.144 10.528L11.064 11.32C10.6 10.648 10.016 10.136 9.312 9.784C8.624 9.416 7.776 9.232 6.768 9.232C5.568 9.232 4.616 9.496 3.912 10.024C3.224 10.536 2.88 11.312 2.88 12.352C2.88 13.344 3.192 14.072 3.816 14.536C4.44 15 5.272 15.336 6.312 15.544L7.8 15.856C9.464 16.224 10.632 16.792 11.304 17.56C11.976 18.328 12.312 19.288 12.312 20.44C12.312 21.976 11.824 23.168 10.848 24.016C9.872 24.864 8.528 25.288 6.816 25.288ZM26.5046 25L24.6806 19.792H17.5526L15.7286 25H14.2886L20.2166 8.248H22.0646L28.0166 25H26.5046ZM21.1526 9.616H21.0566L17.9126 18.544H24.2966L21.1526 9.616ZM41.8562 25L40.0322 19.792H32.9042L31.0802 25H29.6402L35.5682 8.248H37.4162L43.3682 25H41.8562ZM36.5042 9.616H36.4082L33.2642 18.544H39.6482L36.5042 9.616ZM46.3682 8.248H51.6962C53.8562 8.248 55.5202 8.944 56.6882 10.336C57.8722 11.728 58.4642 13.824 58.4642 16.624C58.4642 19.424 57.8722 21.52 56.6882 22.912C55.5202 24.304 53.8562 25 51.6962 25H46.3682V8.248ZM51.7202 23.728C53.3682 23.728 54.6482 23.2 55.5602 22.144C56.4722 21.072 56.9282 19.6 56.9282 17.728V15.52C56.9282 13.648 56.4722 12.184 55.5602 11.128C54.6482 10.056 53.3682 9.52 51.7202 9.52H47.8082V23.728H51.7202Z" fill="white"/>
<path d="M76 8V24" stroke="white"/>
<path d="M97.112 23.216C96.08 23.216 95.216 23.024 94.52 22.64C93.836 22.244 93.248 21.722 92.756 21.074L93.566 20.408C94.01 20.996 94.508 21.452 95.06 21.776C95.624 22.1 96.32 22.262 97.148 22.262C98.12 22.262 98.864 22.034 99.38 21.578C99.908 21.11 100.172 20.462 100.172 19.634C100.172 18.866 99.95 18.302 99.506 17.942C99.062 17.582 98.438 17.318 97.634 17.15L96.518 16.916C95.318 16.676 94.448 16.274 93.908 15.71C93.368 15.146 93.098 14.426 93.098 13.55C93.098 12.998 93.194 12.518 93.386 12.11C93.578 11.69 93.848 11.342 94.196 11.066C94.556 10.79 94.982 10.58 95.474 10.436C95.978 10.292 96.53 10.22 97.13 10.22C98.066 10.22 98.858 10.388 99.506 10.724C100.154 11.06 100.688 11.534 101.108 12.146L100.298 12.74C99.95 12.236 99.512 11.852 98.984 11.588C98.468 11.312 97.832 11.174 97.076 11.174C96.176 11.174 95.462 11.372 94.934 11.768C94.418 12.152 94.16 12.734 94.16 13.514C94.16 14.258 94.394 14.804 94.862 15.152C95.33 15.5 95.954 15.752 96.734 15.908L97.85 16.142C99.098 16.418 99.974 16.844 100.478 17.42C100.982 17.996 101.234 18.716 101.234 19.58C101.234 20.732 100.868 21.626 100.136 22.262C99.404 22.898 98.396 23.216 97.112 23.216ZM107.18 23.216C106.568 23.216 106.016 23.108 105.524 22.892C105.032 22.676 104.612 22.364 104.264 21.956C103.916 21.536 103.646 21.026 103.454 20.426C103.262 19.826 103.166 19.148 103.166 18.392C103.166 17.636 103.262 16.964 103.454 16.376C103.646 15.776 103.916 15.272 104.264 14.864C104.612 14.444 105.032 14.126 105.524 13.91C106.016 13.682 106.568 13.568 107.18 13.568C107.792 13.568 108.344 13.682 108.836 13.91C109.328 14.126 109.748 14.444 110.096 14.864C110.444 15.272 110.714 15.776 110.906 16.376C111.098 16.964 111.194 17.636 111.194 18.392C111.194 19.148 111.098 19.826 110.906 20.426C110.714 21.026 110.444 21.536 110.096 21.956C109.748 22.364 109.328 22.676 108.836 22.892C108.344 23.108 107.792 23.216 107.18 23.216ZM107.18 22.298C108.08 22.298 108.788 22.016 109.304 21.452C109.832 20.888 110.096 20.06 110.096 18.968V17.816C110.096 16.736 109.832 15.914 109.304 15.35C108.788 14.774 108.08 14.486 107.18 14.486C106.28 14.486 105.566 14.768 105.038 15.332C104.522 15.896 104.264 16.724 104.264 17.816V18.968C104.264 20.048 104.522 20.876 105.038 21.452C105.566 22.016 106.28 22.298 107.18 22.298ZM114.163 14.684H112.579V13.784H114.163V11.21C114.163 10.742 114.277 10.37 114.505 10.094C114.745 9.818 115.111 9.68 115.603 9.68H117.223V10.58H115.189V13.784H117.223V14.684H115.189V23H114.163V14.684ZM120.904 23C120.532 23 120.25 22.898 120.058 22.694C119.866 22.49 119.77 22.214 119.77 21.866V14.684H118.168V13.784H119.212C119.464 13.784 119.632 13.736 119.716 13.64C119.812 13.532 119.86 13.346 119.86 13.082V11.21H120.796V13.784H122.884V14.684H120.796V22.1H122.74V23H120.904ZM124.27 13.784H125.278L127.492 22.082H127.528L129.976 13.784H130.93L133.396 22.082H133.432L135.628 13.784H136.618L134.026 23H132.766L130.444 15.242H130.408L128.104 23H126.862L124.27 13.784ZM145.063 23C144.667 23 144.379 22.898 144.199 22.694C144.019 22.49 143.917 22.214 143.893 21.866V21.542H143.803C143.599 22.058 143.263 22.466 142.795 22.766C142.327 23.066 141.733 23.216 141.013 23.216C140.041 23.216 139.291 22.982 138.763 22.514C138.235 22.034 137.971 21.362 137.971 20.498C137.971 19.682 138.259 19.034 138.835 18.554C139.423 18.074 140.383 17.834 141.715 17.834H143.839V16.754C143.839 15.23 143.053 14.468 141.481 14.468C140.869 14.468 140.359 14.6 139.951 14.864C139.543 15.116 139.213 15.482 138.961 15.962L138.313 15.422C138.565 14.882 138.949 14.438 139.465 14.09C139.993 13.742 140.677 13.568 141.517 13.568C142.597 13.568 143.425 13.838 144.001 14.378C144.577 14.918 144.865 15.674 144.865 16.646V22.1H146.107V23H145.063ZM141.157 22.334C141.529 22.334 141.877 22.286 142.201 22.19C142.525 22.094 142.807 21.962 143.047 21.794C143.299 21.614 143.491 21.404 143.623 21.164C143.767 20.912 143.839 20.63 143.839 20.318V18.608H141.679C140.755 18.608 140.083 18.758 139.663 19.058C139.255 19.346 139.051 19.748 139.051 20.264V20.696C139.051 21.236 139.243 21.644 139.627 21.92C140.011 22.196 140.521 22.334 141.157 22.334ZM148.219 23V13.784H149.245V15.44H149.317C149.497 15.008 149.803 14.624 150.235 14.288C150.667 13.952 151.279 13.784 152.071 13.784H152.683V14.792H151.873C151.105 14.792 150.475 14.96 149.983 15.296C149.491 15.632 149.245 16.1 149.245 16.7V23H148.219ZM157.894 23.216C157.282 23.216 156.724 23.108 156.22 22.892C155.728 22.676 155.302 22.364 154.942 21.956C154.594 21.536 154.324 21.026 154.132 20.426C153.952 19.826 153.862 19.148 153.862 18.392C153.862 17.636 153.952 16.964 154.132 16.376C154.324 15.776 154.594 15.272 154.942 14.864C155.302 14.444 155.728 14.126 156.22 13.91C156.712 13.682 157.264 13.568 157.876 13.568C158.464 13.568 158.998 13.682 159.478 13.91C159.958 14.126 160.366 14.432 160.702 14.828C161.038 15.224 161.296 15.704 161.476 16.268C161.668 16.82 161.764 17.432 161.764 18.104V18.59H154.942V19.04C154.942 19.52 155.008 19.964 155.14 20.372C155.284 20.768 155.482 21.11 155.734 21.398C155.998 21.686 156.316 21.914 156.688 22.082C157.06 22.238 157.48 22.316 157.948 22.316C159.292 22.316 160.222 21.698 160.738 20.462L161.494 20.966C161.206 21.65 160.75 22.196 160.126 22.604C159.514 23.012 158.77 23.216 157.894 23.216ZM157.876 14.432C157.432 14.432 157.03 14.516 156.67 14.684C156.31 14.84 155.998 15.062 155.734 15.35C155.482 15.638 155.284 15.986 155.14 16.394C155.008 16.79 154.942 17.228 154.942 17.708V17.798H160.648V17.654C160.648 17.174 160.582 16.736 160.45 16.34C160.318 15.932 160.126 15.59 159.874 15.314C159.634 15.038 159.34 14.822 158.992 14.666C158.656 14.51 158.284 14.432 157.876 14.432ZM174.585 21.524H174.531C174.291 22.04 173.937 22.454 173.469 22.766C173.013 23.066 172.431 23.216 171.723 23.216C170.535 23.216 169.605 22.796 168.933 21.956C168.261 21.116 167.925 19.928 167.925 18.392C167.925 16.856 168.261 15.668 168.933 14.828C169.605 13.988 170.535 13.568 171.723 13.568C172.431 13.568 173.019 13.724 173.487 14.036C173.955 14.336 174.303 14.744 174.531 15.26H174.585V9.68H175.611V23H174.585V21.524ZM171.957 22.298C172.317 22.298 172.653 22.25 172.965 22.154C173.289 22.058 173.571 21.92 173.811 21.74C174.051 21.548 174.237 21.326 174.369 21.074C174.513 20.81 174.585 20.516 174.585 20.192V16.538C174.585 16.238 174.513 15.962 174.369 15.71C174.237 15.458 174.051 15.242 173.811 15.062C173.571 14.882 173.289 14.744 172.965 14.648C172.653 14.54 172.317 14.486 171.957 14.486C171.033 14.486 170.313 14.78 169.797 15.368C169.281 15.956 169.023 16.748 169.023 17.744V19.04C169.023 20.036 169.281 20.828 169.797 21.416C170.313 22.004 171.033 22.298 171.957 22.298ZM182.257 23.216C181.645 23.216 181.087 23.108 180.583 22.892C180.091 22.676 179.665 22.364 179.305 21.956C178.957 21.536 178.687 21.026 178.495 20.426C178.315 19.826 178.225 19.148 178.225 18.392C178.225 17.636 178.315 16.964 178.495 16.376C178.687 15.776 178.957 15.272 179.305 14.864C179.665 14.444 180.091 14.126 180.583 13.91C181.075 13.682 181.627 13.568 182.239 13.568C182.827 13.568 183.361 13.682 183.841 13.91C184.321 14.126 184.729 14.432 185.065 14.828C185.401 15.224 185.659 15.704 185.839 16.268C186.031 16.82 186.127 17.432 186.127 18.104V18.59H179.305V19.04C179.305 19.52 179.371 19.964 179.503 20.372C179.647 20.768 179.845 21.11 180.097 21.398C180.361 21.686 180.679 21.914 181.051 22.082C181.423 22.238 181.843 22.316 182.311 22.316C183.655 22.316 184.585 21.698 185.101 20.462L185.857 20.966C185.569 21.65 185.113 22.196 184.489 22.604C183.877 23.012 183.133 23.216 182.257 23.216ZM182.239 14.432C181.795 14.432 181.393 14.516 181.033 14.684C180.673 14.84 180.361 15.062 180.097 15.35C179.845 15.638 179.647 15.986 179.503 16.394C179.371 16.79 179.305 17.228 179.305 17.708V17.798H185.011V17.654C185.011 17.174 184.945 16.736 184.813 16.34C184.681 15.932 184.489 15.59 184.237 15.314C183.997 15.038 183.703 14.822 183.355 14.666C183.019 14.51 182.647 14.432 182.239 14.432ZM200.964 23L199.596 19.094H194.25L192.882 23H191.802L196.248 10.436H197.634L202.098 23H200.964ZM196.95 11.462H196.878L194.52 18.158H199.308L196.95 11.462ZM210 21.542H209.928C209.844 21.758 209.73 21.968 209.586 22.172C209.442 22.376 209.262 22.556 209.046 22.712C208.83 22.856 208.572 22.976 208.272 23.072C207.984 23.168 207.642 23.216 207.246 23.216C206.262 23.216 205.494 22.916 204.942 22.316C204.39 21.704 204.114 20.834 204.114 19.706V13.784H205.14V19.508C205.14 20.456 205.344 21.158 205.752 21.614C206.16 22.07 206.748 22.298 207.516 22.298C207.84 22.298 208.146 22.256 208.434 22.172C208.734 22.088 208.998 21.962 209.226 21.794C209.466 21.626 209.652 21.416 209.784 21.164C209.928 20.9 210 20.594 210 20.246V13.784H211.026V23H210V21.542ZM216.993 23.216C216.189 23.216 215.499 23.066 214.923 22.766C214.359 22.466 213.867 22.028 213.447 21.452L214.203 20.858C214.587 21.362 215.007 21.734 215.463 21.974C215.919 22.214 216.453 22.334 217.065 22.334C217.773 22.334 218.319 22.184 218.703 21.884C219.087 21.584 219.279 21.152 219.279 20.588C219.279 20.096 219.129 19.712 218.829 19.436C218.541 19.148 218.061 18.956 217.389 18.86L216.633 18.734C216.213 18.674 215.829 18.584 215.481 18.464C215.133 18.344 214.833 18.182 214.581 17.978C214.341 17.774 214.149 17.528 214.005 17.24C213.873 16.94 213.807 16.58 213.807 16.16C213.807 15.728 213.885 15.35 214.041 15.026C214.209 14.702 214.431 14.432 214.707 14.216C214.983 14 215.313 13.838 215.697 13.73C216.081 13.622 216.495 13.568 216.939 13.568C217.707 13.568 218.337 13.7 218.829 13.964C219.321 14.228 219.741 14.57 220.089 14.99L219.405 15.62C219.165 15.332 218.841 15.068 218.433 14.828C218.037 14.576 217.521 14.45 216.885 14.45C216.225 14.45 215.709 14.594 215.337 14.882C214.977 15.17 214.797 15.578 214.797 16.106C214.797 16.646 214.959 17.036 215.283 17.276C215.619 17.516 216.117 17.69 216.777 17.798L217.515 17.906C218.451 18.05 219.141 18.332 219.585 18.752C220.041 19.16 220.269 19.736 220.269 20.48C220.269 21.344 219.975 22.016 219.387 22.496C218.811 22.976 218.013 23.216 216.993 23.216ZM226.201 23.216C224.929 23.216 223.945 22.796 223.249 21.956C222.565 21.116 222.223 19.928 222.223 18.392C222.223 16.856 222.565 15.668 223.249 14.828C223.945 13.988 224.929 13.568 226.201 13.568C227.053 13.568 227.743 13.754 228.271 14.126C228.799 14.498 229.201 14.99 229.477 15.602L228.613 16.034C228.397 15.53 228.091 15.146 227.695 14.882C227.311 14.618 226.813 14.486 226.201 14.486C225.265 14.486 224.551 14.786 224.059 15.386C223.567 15.986 223.321 16.772 223.321 17.744V19.04C223.321 20.012 223.567 20.798 224.059 21.398C224.551 21.998 225.265 22.298 226.201 22.298C226.837 22.298 227.371 22.16 227.803 21.884C228.235 21.608 228.583 21.212 228.847 20.696L229.603 21.2C229.303 21.812 228.871 22.304 228.307 22.676C227.755 23.036 227.053 23.216 226.201 23.216ZM237.651 21.542H237.579C237.495 21.758 237.381 21.968 237.237 22.172C237.093 22.376 236.913 22.556 236.697 22.712C236.481 22.856 236.223 22.976 235.923 23.072C235.635 23.168 235.293 23.216 234.897 23.216C233.913 23.216 233.145 22.916 232.593 22.316C232.041 21.704 231.765 20.834 231.765 19.706V13.784H232.791V19.508C232.791 20.456 232.995 21.158 233.403 21.614C233.811 22.07 234.399 22.298 235.167 22.298C235.491 22.298 235.797 22.256 236.085 22.172C236.385 22.088 236.649 21.962 236.877 21.794C237.117 21.626 237.303 21.416 237.435 21.164C237.579 20.9 237.651 20.594 237.651 20.246V13.784H238.677V23H237.651V21.542ZM243.167 23C242.795 23 242.513 22.898 242.321 22.694C242.129 22.49 242.033 22.22 242.033 21.884V9.68H243.059V22.1H244.481V23H243.167ZM248.276 23C247.904 23 247.622 22.898 247.43 22.694C247.238 22.49 247.142 22.214 247.142 21.866V14.684H245.54V13.784H246.584C246.836 13.784 247.004 13.736 247.088 13.64C247.184 13.532 247.232 13.346 247.232 13.082V11.21H248.168V13.784H250.256V14.684H248.168V22.1H250.112V23H248.276ZM259.057 23C258.661 23 258.373 22.898 258.193 22.694C258.013 22.49 257.911 22.214 257.887 21.866V21.542H257.797C257.593 22.058 257.257 22.466 256.789 22.766C256.321 23.066 255.727 23.216 255.007 23.216C254.035 23.216 253.285 22.982 252.757 22.514C252.229 22.034 251.965 21.362 251.965 20.498C251.965 19.682 252.253 19.034 252.829 18.554C253.417 18.074 254.377 17.834 255.709 17.834H257.833V16.754C257.833 15.23 257.047 14.468 255.475 14.468C254.863 14.468 254.353 14.6 253.945 14.864C253.537 15.116 253.207 15.482 252.955 15.962L252.307 15.422C252.559 14.882 252.943 14.438 253.459 14.09C253.987 13.742 254.671 13.568 255.511 13.568C256.591 13.568 257.419 13.838 257.995 14.378C258.571 14.918 258.859 15.674 258.859 16.646V22.1H260.101V23H259.057ZM255.151 22.334C255.523 22.334 255.871 22.286 256.195 22.19C256.519 22.094 256.801 21.962 257.041 21.794C257.293 21.614 257.485 21.404 257.617 21.164C257.761 20.912 257.833 20.63 257.833 20.318V18.608H255.673C254.749 18.608 254.077 18.758 253.657 19.058C253.249 19.346 253.045 19.748 253.045 20.264V20.696C253.045 21.236 253.237 21.644 253.621 21.92C254.005 22.196 254.515 22.334 255.151 22.334ZM265.453 13.568C266.305 13.568 266.995 13.754 267.523 14.126C268.051 14.498 268.453 14.984 268.729 15.584L267.865 16.034C267.649 15.53 267.343 15.146 266.947 14.882C266.563 14.618 266.065 14.486 265.453 14.486C264.517 14.486 263.803 14.786 263.311 15.386C262.819 15.986 262.573 16.772 262.573 17.744V19.04C262.573 20.012 262.819 20.798 263.311 21.398C263.803 21.998 264.517 22.298 265.453 22.298C266.089 22.298 266.623 22.16 267.055 21.884C267.487 21.608 267.835 21.212 268.099 20.696L268.855 21.2C268.579 21.776 268.183 22.244 267.667 22.604C267.163 22.964 266.527 23.162 265.759 23.198L265.543 24.188L265.579 24.224C265.819 24.164 266.035 24.134 266.227 24.134C266.575 24.134 266.863 24.23 267.091 24.422C267.331 24.626 267.451 24.914 267.451 25.286C267.451 25.73 267.277 26.072 266.929 26.312C266.581 26.564 266.155 26.69 265.651 26.69C265.219 26.69 264.865 26.618 264.589 26.474C264.313 26.342 264.115 26.192 263.995 26.024L264.499 25.466C264.619 25.61 264.769 25.73 264.949 25.826C265.141 25.922 265.375 25.97 265.651 25.97C265.915 25.97 266.131 25.91 266.299 25.79C266.479 25.682 266.569 25.508 266.569 25.268C266.569 25.076 266.485 24.914 266.317 24.782C266.161 24.65 265.849 24.554 265.381 24.494L264.823 24.44L265.075 23.198C263.911 23.114 263.017 22.658 262.393 21.83C261.781 20.99 261.475 19.844 261.475 18.392C261.475 16.856 261.817 15.668 262.501 14.828C263.197 13.988 264.181 13.568 265.453 13.568ZM277.479 23C277.083 23 276.795 22.898 276.615 22.694C276.435 22.49 276.333 22.214 276.309 21.866V21.542H276.219C276.015 22.058 275.679 22.466 275.211 22.766C274.743 23.066 274.149 23.216 273.429 23.216C272.457 23.216 271.707 22.982 271.179 22.514C270.651 22.034 270.387 21.362 270.387 20.498C270.387 19.682 270.675 19.034 271.251 18.554C271.839 18.074 272.799 17.834 274.131 17.834H276.255V16.754C276.255 15.23 275.469 14.468 273.897 14.468C273.285 14.468 272.775 14.6 272.367 14.864C271.959 15.116 271.629 15.482 271.377 15.962L270.729 15.422C270.981 14.882 271.365 14.438 271.881 14.09C272.409 13.742 273.093 13.568 273.933 13.568C275.013 13.568 275.841 13.838 276.417 14.378C276.993 14.918 277.281 15.674 277.281 16.646V22.1H278.523V23H277.479ZM273.573 22.334C273.945 22.334 274.293 22.286 274.617 22.19C274.941 22.094 275.223 21.962 275.463 21.794C275.715 21.614 275.907 21.404 276.039 21.164C276.183 20.912 276.255 20.63 276.255 20.318V18.608H274.095C273.171 18.608 272.499 18.758 272.079 19.058C271.671 19.346 271.467 19.748 271.467 20.264V20.696C271.467 21.236 271.659 21.644 272.043 21.92C272.427 22.196 272.937 22.334 273.573 22.334ZM275.301 11.876C275.025 11.876 274.779 11.828 274.563 11.732C274.347 11.636 274.119 11.516 273.879 11.372C273.603 11.204 273.369 11.09 273.177 11.03C272.997 10.958 272.823 10.922 272.655 10.922C272.451 10.922 272.265 10.97 272.097 11.066C271.929 11.162 271.749 11.294 271.557 11.462L271.107 10.94C271.299 10.7 271.527 10.496 271.791 10.328C272.055 10.16 272.361 10.076 272.709 10.076C272.985 10.076 273.231 10.124 273.447 10.22C273.663 10.316 273.891 10.436 274.131 10.58C274.407 10.748 274.635 10.868 274.815 10.94C275.007 11 275.187 11.03 275.355 11.03C275.559 11.03 275.745 10.982 275.913 10.886C276.081 10.79 276.261 10.658 276.453 10.49L276.903 11.012C276.711 11.252 276.483 11.456 276.219 11.624C275.955 11.792 275.649 11.876 275.301 11.876ZM283.911 23.216C283.299 23.216 282.747 23.108 282.255 22.892C281.763 22.676 281.343 22.364 280.995 21.956C280.647 21.536 280.377 21.026 280.185 20.426C279.993 19.826 279.897 19.148 279.897 18.392C279.897 17.636 279.993 16.964 280.185 16.376C280.377 15.776 280.647 15.272 280.995 14.864C281.343 14.444 281.763 14.126 282.255 13.91C282.747 13.682 283.299 13.568 283.911 13.568C284.523 13.568 285.075 13.682 285.567 13.91C286.059 14.126 286.479 14.444 286.827 14.864C287.175 15.272 287.445 15.776 287.637 16.376C287.829 16.964 287.925 17.636 287.925 18.392C287.925 19.148 287.829 19.826 287.637 20.426C287.445 21.026 287.175 21.536 286.827 21.956C286.479 22.364 286.059 22.676 285.567 22.892C285.075 23.108 284.523 23.216 283.911 23.216ZM283.911 22.298C284.811 22.298 285.519 22.016 286.035 21.452C286.563 20.888 286.827 20.06 286.827 18.968V17.816C286.827 16.736 286.563 15.914 286.035 15.35C285.519 14.774 284.811 14.486 283.911 14.486C283.011 14.486 282.297 14.768 281.769 15.332C281.253 15.896 280.995 16.724 280.995 17.816V18.968C280.995 20.048 281.253 20.876 281.769 21.452C282.297 22.016 283.011 22.298 283.911 22.298ZM302.759 23L301.391 19.094H296.045L294.677 23H293.597L298.043 10.436H299.429L303.893 23H302.759ZM298.745 11.462H298.673L296.315 18.158H301.103L298.745 11.462ZM311.795 21.542H311.723C311.639 21.758 311.525 21.968 311.381 22.172C311.237 22.376 311.057 22.556 310.841 22.712C310.625 22.856 310.367 22.976 310.067 23.072C309.779 23.168 309.437 23.216 309.041 23.216C308.057 23.216 307.289 22.916 306.737 22.316C306.185 21.704 305.909 20.834 305.909 19.706V13.784H306.935V19.508C306.935 20.456 307.139 21.158 307.547 21.614C307.955 22.07 308.543 22.298 309.311 22.298C309.635 22.298 309.941 22.256 310.229 22.172C310.529 22.088 310.793 21.962 311.021 21.794C311.261 21.626 311.447 21.416 311.579 21.164C311.723 20.9 311.795 20.594 311.795 20.246V13.784H312.821V23H311.795V21.542ZM317.762 23C317.39 23 317.108 22.898 316.916 22.694C316.724 22.49 316.628 22.214 316.628 21.866V14.684H315.026V13.784H316.07C316.322 13.784 316.49 13.736 316.574 13.64C316.67 13.532 316.718 13.346 316.718 13.082V11.21H317.654V13.784H319.742V14.684H317.654V22.1H319.598V23H317.762ZM325.413 23.216C324.801 23.216 324.249 23.108 323.757 22.892C323.265 22.676 322.845 22.364 322.497 21.956C322.149 21.536 321.879 21.026 321.687 20.426C321.495 19.826 321.399 19.148 321.399 18.392C321.399 17.636 321.495 16.964 321.687 16.376C321.879 15.776 322.149 15.272 322.497 14.864C322.845 14.444 323.265 14.126 323.757 13.91C324.249 13.682 324.801 13.568 325.413 13.568C326.025 13.568 326.577 13.682 327.069 13.91C327.561 14.126 327.981 14.444 328.329 14.864C328.677 15.272 328.947 15.776 329.139 16.376C329.331 16.964 329.427 17.636 329.427 18.392C329.427 19.148 329.331 19.826 329.139 20.426C328.947 21.026 328.677 21.536 328.329 21.956C327.981 22.364 327.561 22.676 327.069 22.892C326.577 23.108 326.025 23.216 325.413 23.216ZM325.413 22.298C326.313 22.298 327.021 22.016 327.537 21.452C328.065 20.888 328.329 20.06 328.329 18.968V17.816C328.329 16.736 328.065 15.914 327.537 15.35C327.021 14.774 326.313 14.486 325.413 14.486C324.513 14.486 323.799 14.768 323.271 15.332C322.755 15.896 322.497 16.724 322.497 17.816V18.968C322.497 20.048 322.755 20.876 323.271 21.452C323.799 22.016 324.513 22.298 325.413 22.298ZM332.033 23V13.784H333.059V15.242H333.113C333.209 15.014 333.329 14.804 333.473 14.612C333.617 14.408 333.791 14.228 333.995 14.072C334.199 13.916 334.439 13.796 334.715 13.712C335.003 13.616 335.339 13.568 335.723 13.568C336.383 13.568 336.965 13.724 337.469 14.036C337.973 14.348 338.339 14.84 338.567 15.512H338.621C338.789 14.972 339.107 14.516 339.575 14.144C340.055 13.76 340.703 13.568 341.519 13.568C342.503 13.568 343.259 13.874 343.787 14.486C344.315 15.086 344.579 15.95 344.579 17.078V23H343.553V17.258C343.553 15.41 342.779 14.486 341.231 14.486C340.907 14.486 340.601 14.528 340.313 14.612C340.025 14.696 339.767 14.828 339.539 15.008C339.323 15.176 339.149 15.392 339.017 15.656C338.885 15.908 338.819 16.202 338.819 16.538V23H337.793V17.258C337.793 15.41 337.025 14.486 335.489 14.486C335.177 14.486 334.871 14.528 334.571 14.612C334.283 14.696 334.025 14.822 333.797 14.99C333.569 15.158 333.389 15.374 333.257 15.638C333.125 15.89 333.059 16.184 333.059 16.52V23H332.033ZM354.137 23C353.741 23 353.453 22.898 353.273 22.694C353.093 22.49 352.991 22.214 352.967 21.866V21.542H352.877C352.673 22.058 352.337 22.466 351.869 22.766C351.401 23.066 350.807 23.216 350.087 23.216C349.115 23.216 348.365 22.982 347.837 22.514C347.309 22.034 347.045 21.362 347.045 20.498C347.045 19.682 347.333 19.034 347.909 18.554C348.497 18.074 349.457 17.834 350.789 17.834H352.913V16.754C352.913 15.23 352.127 14.468 350.555 14.468C349.943 14.468 349.433 14.6 349.025 14.864C348.617 15.116 348.287 15.482 348.035 15.962L347.387 15.422C347.639 14.882 348.023 14.438 348.539 14.09C349.067 13.742 349.751 13.568 350.591 13.568C351.671 13.568 352.499 13.838 353.075 14.378C353.651 14.918 353.939 15.674 353.939 16.646V22.1H355.181V23H354.137ZM350.231 22.334C350.603 22.334 350.951 22.286 351.275 22.19C351.599 22.094 351.881 21.962 352.121 21.794C352.373 21.614 352.565 21.404 352.697 21.164C352.841 20.912 352.913 20.63 352.913 20.318V18.608H350.753C349.829 18.608 349.157 18.758 348.737 19.058C348.329 19.346 348.125 19.748 348.125 20.264V20.696C348.125 21.236 348.317 21.644 348.701 21.92C349.085 22.196 349.595 22.334 350.231 22.334ZM350.609 12.452L349.943 12.128L351.653 9.176L352.589 9.644L350.609 12.452ZM358.912 23C358.54 23 358.258 22.898 358.066 22.694C357.874 22.49 357.778 22.214 357.778 21.866V14.684H356.176V13.784H357.22C357.472 13.784 357.64 13.736 357.724 13.64C357.82 13.532 357.868 13.346 357.868 13.082V11.21H358.804V13.784H360.892V14.684H358.804V22.1H360.748V23H358.912ZM363.862 11.282C363.622 11.282 363.442 11.222 363.322 11.102C363.214 10.982 363.16 10.826 363.16 10.634V10.454C363.16 10.262 363.214 10.106 363.322 9.986C363.442 9.866 363.622 9.806 363.862 9.806C364.102 9.806 364.276 9.866 364.384 9.986C364.504 10.106 364.564 10.262 364.564 10.454V10.634C364.564 10.826 364.504 10.982 364.384 11.102C364.276 11.222 364.102 11.282 363.862 11.282ZM363.358 13.784H364.384V23H363.358V13.784ZM370.975 23.216C369.703 23.216 368.719 22.796 368.023 21.956C367.339 21.116 366.997 19.928 366.997 18.392C366.997 16.856 367.339 15.668 368.023 14.828C368.719 13.988 369.703 13.568 370.975 13.568C371.827 13.568 372.517 13.754 373.045 14.126C373.573 14.498 373.975 14.99 374.251 15.602L373.387 16.034C373.171 15.53 372.865 15.146 372.469 14.882C372.085 14.618 371.587 14.486 370.975 14.486C370.039 14.486 369.325 14.786 368.833 15.386C368.341 15.986 368.095 16.772 368.095 17.744V19.04C368.095 20.012 368.341 20.798 368.833 21.398C369.325 21.998 370.039 22.298 370.975 22.298C371.611 22.298 372.145 22.16 372.577 21.884C373.009 21.608 373.357 21.212 373.621 20.696L374.377 21.2C374.077 21.812 373.645 22.304 373.081 22.676C372.529 23.036 371.827 23.216 370.975 23.216ZM383 23C382.604 23 382.316 22.898 382.136 22.694C381.956 22.49 381.854 22.214 381.83 21.866V21.542H381.74C381.536 22.058 381.2 22.466 380.732 22.766C380.264 23.066 379.67 23.216 378.95 23.216C377.978 23.216 377.228 22.982 376.7 22.514C376.172 22.034 375.908 21.362 375.908 20.498C375.908 19.682 376.196 19.034 376.772 18.554C377.36 18.074 378.32 17.834 379.652 17.834H381.776V16.754C381.776 15.23 380.99 14.468 379.418 14.468C378.806 14.468 378.296 14.6 377.888 14.864C377.48 15.116 377.15 15.482 376.898 15.962L376.25 15.422C376.502 14.882 376.886 14.438 377.402 14.09C377.93 13.742 378.614 13.568 379.454 13.568C380.534 13.568 381.362 13.838 381.938 14.378C382.514 14.918 382.802 15.674 382.802 16.646V22.1H384.044V23H383ZM379.094 22.334C379.466 22.334 379.814 22.286 380.138 22.19C380.462 22.094 380.744 21.962 380.984 21.794C381.236 21.614 381.428 21.404 381.56 21.164C381.704 20.912 381.776 20.63 381.776 20.318V18.608H379.616C378.692 18.608 378.02 18.758 377.6 19.058C377.192 19.346 376.988 19.748 376.988 20.264V20.696C376.988 21.236 377.18 21.644 377.564 21.92C377.948 22.196 378.458 22.334 379.094 22.334ZM396.368 21.524H396.314C396.074 22.04 395.72 22.454 395.252 22.766C394.796 23.066 394.214 23.216 393.506 23.216C392.318 23.216 391.388 22.796 390.716 21.956C390.044 21.116 389.708 19.928 389.708 18.392C389.708 16.856 390.044 15.668 390.716 14.828C391.388 13.988 392.318 13.568 393.506 13.568C394.214 13.568 394.802 13.724 395.27 14.036C395.738 14.336 396.086 14.744 396.314 15.26H396.368V9.68H397.394V23H396.368V21.524ZM393.74 22.298C394.1 22.298 394.436 22.25 394.748 22.154C395.072 22.058 395.354 21.92 395.594 21.74C395.834 21.548 396.02 21.326 396.152 21.074C396.296 20.81 396.368 20.516 396.368 20.192V16.538C396.368 16.238 396.296 15.962 396.152 15.71C396.02 15.458 395.834 15.242 395.594 15.062C395.354 14.882 395.072 14.744 394.748 14.648C394.436 14.54 394.1 14.486 393.74 14.486C392.816 14.486 392.096 14.78 391.58 15.368C391.064 15.956 390.806 16.748 390.806 17.744V19.04C390.806 20.036 391.064 20.828 391.58 21.416C392.096 22.004 392.816 22.298 393.74 22.298ZM404.04 23.216C403.428 23.216 402.87 23.108 402.366 22.892C401.874 22.676 401.448 22.364 401.088 21.956C400.74 21.536 400.47 21.026 400.278 20.426C400.098 19.826 400.008 19.148 400.008 18.392C400.008 17.636 400.098 16.964 400.278 16.376C400.47 15.776 400.74 15.272 401.088 14.864C401.448 14.444 401.874 14.126 402.366 13.91C402.858 13.682 403.41 13.568 404.022 13.568C404.61 13.568 405.144 13.682 405.624 13.91C406.104 14.126 406.512 14.432 406.848 14.828C407.184 15.224 407.442 15.704 407.622 16.268C407.814 16.82 407.91 17.432 407.91 18.104V18.59H401.088V19.04C401.088 19.52 401.154 19.964 401.286 20.372C401.43 20.768 401.628 21.11 401.88 21.398C402.144 21.686 402.462 21.914 402.834 22.082C403.206 22.238 403.626 22.316 404.094 22.316C405.438 22.316 406.368 21.698 406.884 20.462L407.64 20.966C407.352 21.65 406.896 22.196 406.272 22.604C405.66 23.012 404.916 23.216 404.04 23.216ZM404.022 14.432C403.578 14.432 403.176 14.516 402.816 14.684C402.456 14.84 402.144 15.062 401.88 15.35C401.628 15.638 401.43 15.986 401.286 16.394C401.154 16.79 401.088 17.228 401.088 17.708V17.798H406.794V17.654C406.794 17.174 406.728 16.736 406.596 16.34C406.464 15.932 406.272 15.59 406.02 15.314C405.78 15.038 405.486 14.822 405.138 14.666C404.802 14.51 404.43 14.432 404.022 14.432ZM414.882 10.436H418.878C420.498 10.436 421.746 10.958 422.622 12.002C423.51 13.046 423.954 14.618 423.954 16.718C423.954 18.818 423.51 20.39 422.622 21.434C421.746 22.478 420.498 23 418.878 23H414.882V10.436ZM418.896 22.046C420.132 22.046 421.092 21.65 421.776 20.858C422.46 20.054 422.802 18.95 422.802 17.546V15.89C422.802 14.486 422.46 13.388 421.776 12.596C421.092 11.792 420.132 11.39 418.896 11.39H415.962V22.046H418.896ZM433.098 23C432.702 23 432.414 22.898 432.234 22.694C432.054 22.49 431.952 22.214 431.928 21.866V21.542H431.838C431.634 22.058 431.298 22.466 430.83 22.766C430.362 23.066 429.768 23.216 429.048 23.216C428.076 23.216 427.326 22.982 426.798 22.514C426.27 22.034 426.006 21.362 426.006 20.498C426.006 19.682 426.294 19.034 426.87 18.554C427.458 18.074 428.418 17.834 429.75 17.834H431.874V16.754C431.874 15.23 431.088 14.468 429.516 14.468C428.904 14.468 428.394 14.6 427.986 14.864C427.578 15.116 427.248 15.482 426.996 15.962L426.348 15.422C426.6 14.882 426.984 14.438 427.5 14.09C428.028 13.742 428.712 13.568 429.552 13.568C430.632 13.568 431.46 13.838 432.036 14.378C432.612 14.918 432.9 15.674 432.9 16.646V22.1H434.142V23H433.098ZM429.192 22.334C429.564 22.334 429.912 22.286 430.236 22.19C430.56 22.094 430.842 21.962 431.082 21.794C431.334 21.614 431.526 21.404 431.658 21.164C431.802 20.912 431.874 20.63 431.874 20.318V18.608H429.714C428.79 18.608 428.118 18.758 427.698 19.058C427.29 19.346 427.086 19.748 427.086 20.264V20.696C427.086 21.236 427.278 21.644 427.662 21.92C428.046 22.196 428.556 22.334 429.192 22.334ZM442.212 21.524H442.158C441.918 22.04 441.564 22.454 441.096 22.766C440.64 23.066 440.058 23.216 439.35 23.216C438.162 23.216 437.232 22.796 436.56 21.956C435.888 21.116 435.552 19.928 435.552 18.392C435.552 16.856 435.888 15.668 436.56 14.828C437.232 13.988 438.162 13.568 439.35 13.568C440.058 13.568 440.646 13.724 441.114 14.036C441.582 14.336 441.93 14.744 442.158 15.26H442.212V9.68H443.238V23H442.212V21.524ZM439.584 22.298C439.944 22.298 440.28 22.25 440.592 22.154C440.916 22.058 441.198 21.92 441.438 21.74C441.678 21.548 441.864 21.326 441.996 21.074C442.14 20.81 442.212 20.516 442.212 20.192V16.538C442.212 16.238 442.14 15.962 441.996 15.71C441.864 15.458 441.678 15.242 441.438 15.062C441.198 14.882 440.916 14.744 440.592 14.648C440.28 14.54 439.944 14.486 439.584 14.486C438.66 14.486 437.94 14.78 437.424 15.368C436.908 15.956 436.65 16.748 436.65 17.744V19.04C436.65 20.036 436.908 20.828 437.424 21.416C437.94 22.004 438.66 22.298 439.584 22.298ZM449.866 23.216C449.254 23.216 448.702 23.108 448.21 22.892C447.718 22.676 447.298 22.364 446.95 21.956C446.602 21.536 446.332 21.026 446.14 20.426C445.948 19.826 445.852 19.148 445.852 18.392C445.852 17.636 445.948 16.964 446.14 16.376C446.332 15.776 446.602 15.272 446.95 14.864C447.298 14.444 447.718 14.126 448.21 13.91C448.702 13.682 449.254 13.568 449.866 13.568C450.478 13.568 451.03 13.682 451.522 13.91C452.014 14.126 452.434 14.444 452.782 14.864C453.13 15.272 453.4 15.776 453.592 16.376C453.784 16.964 453.88 17.636 453.88 18.392C453.88 19.148 453.784 19.826 453.592 20.426C453.4 21.026 453.13 21.536 452.782 21.956C452.434 22.364 452.014 22.676 451.522 22.892C451.03 23.108 450.478 23.216 449.866 23.216ZM449.866 22.298C450.766 22.298 451.474 22.016 451.99 21.452C452.518 20.888 452.782 20.06 452.782 18.968V17.816C452.782 16.736 452.518 15.914 451.99 15.35C451.474 14.774 450.766 14.486 449.866 14.486C448.966 14.486 448.252 14.768 447.724 15.332C447.208 15.896 446.95 16.724 446.95 17.816V18.968C446.95 20.048 447.208 20.876 447.724 21.452C448.252 22.016 448.966 22.298 449.866 22.298ZM459.097 23.216C458.293 23.216 457.603 23.066 457.027 22.766C456.463 22.466 455.971 22.028 455.551 21.452L456.307 20.858C456.691 21.362 457.111 21.734 457.567 21.974C458.023 22.214 458.557 22.334 459.169 22.334C459.877 22.334 460.423 22.184 460.807 21.884C461.191 21.584 461.383 21.152 461.383 20.588C461.383 20.096 461.233 19.712 460.933 19.436C460.645 19.148 460.165 18.956 459.493 18.86L458.737 18.734C458.317 18.674 457.933 18.584 457.585 18.464C457.237 18.344 456.937 18.182 456.685 17.978C456.445 17.774 456.253 17.528 456.109 17.24C455.977 16.94 455.911 16.58 455.911 16.16C455.911 15.728 455.989 15.35 456.145 15.026C456.313 14.702 456.535 14.432 456.811 14.216C457.087 14 457.417 13.838 457.801 13.73C458.185 13.622 458.599 13.568 459.043 13.568C459.811 13.568 460.441 13.7 460.933 13.964C461.425 14.228 461.845 14.57 462.193 14.99L461.509 15.62C461.269 15.332 460.945 15.068 460.537 14.828C460.141 14.576 459.625 14.45 458.989 14.45C458.329 14.45 457.813 14.594 457.441 14.882C457.081 15.17 456.901 15.578 456.901 16.106C456.901 16.646 457.063 17.036 457.387 17.276C457.723 17.516 458.221 17.69 458.881 17.798L459.619 17.906C460.555 18.05 461.245 18.332 461.689 18.752C462.145 19.16 462.373 19.736 462.373 20.48C462.373 21.344 462.079 22.016 461.491 22.496C460.915 22.976 460.117 23.216 459.097 23.216Z" fill="white"/>
</svg>
