<svg width="32" height="32" viewBox="0 0 32 32" fill="none" xmlns="http://www.w3.org/2000/svg">
    <rect width="32" height="32" fill="white" fill-opacity="0.01" style="mix-blend-mode:multiply"/>
    <path d="M29.41 9.26004C29.2506 8.66808 28.9386 8.12835 28.5051 7.69488C28.0716 7.2614 27.5319 6.94938 26.94 6.79004C24.76 6.20004 16 6.20004 16 6.20004C16 6.20004 7.23996 6.20004 5.05996 6.79004C4.468 6.94938 3.92827 7.2614 3.49479 7.69488C3.06132 8.12835 2.7493 8.66808 2.58996 9.26004C2.1829 11.4833 1.98537 13.7399 1.99996 16C1.98537 18.2602 2.1829 20.5168 2.58996 22.74C2.7493 23.332 3.06132 23.8717 3.49479 24.3052C3.92827 24.7387 4.468 25.0507 5.05996 25.21C7.23996 25.8 16 25.8 16 25.8C16 25.8 24.76 25.8 26.94 25.21C27.5319 25.0507 28.0716 24.7387 28.5051 24.3052C28.9386 23.8717 29.2506 23.332 29.41 22.74C29.817 20.5168 30.0145 18.2602 30 16C30.0145 13.7399 29.817 11.4833 29.41 9.26004ZM13.2 20.2V11.8L20.47 16L13.2 20.2Z" fill="#1E72EC"/>
</svg>
